<?xml version="1.0" encoding="UTF-8"?>
<svg version="1.1" xmlns="http://www.w3.org/2000/svg" width="64" height="64">
<path d="M0 0 C0.10139564 6.62014692 0.17146336 13.24009372 0.21972656 19.86083984 C0.23984556 22.11319461 0.26714408 24.36549713 0.30175781 26.61767578 C0.35026209 29.85462331 0.37296605 33.09088047 0.390625 36.328125 C0.41127014 37.33554749 0.43191528 38.34296997 0.45318604 39.38092041 C0.45543029 46.36848561 0.45543029 46.36848561 -1.89941406 49.63378906 C-5.27988792 51.83243292 -8.11323157 51.76461018 -12 51 C-14.5 49.5 -14.5 49.5 -16 47 C-16.791013 42.97901723 -16.62153384 40.03588973 -14.5 36.5 C-12 35 -12 35 -4 35 C-4 29.06 -4 23.12 -4 17 C-15.385 20.96 -15.385 20.96 -27 25 C-27.02578125 26.83046875 -27.0515625 28.6609375 -27.078125 30.546875 C-27.13439998 32.94794071 -27.19174744 35.34898145 -27.25 37.75 C-27.27126953 39.55984375 -27.27126953 39.55984375 -27.29296875 41.40625 C-27.32519531 42.56640625 -27.35742188 43.7265625 -27.390625 44.921875 C-27.4220459 46.52434082 -27.4220459 46.52434082 -27.45410156 48.15917969 C-28.12180735 51.63387762 -29.26079416 52.8299132 -32 55 C-34.74791413 55.72991469 -37.22011721 55.54686219 -40 55 C-42.5 53.5 -42.5 53.5 -44 51 C-44.791013 46.97901723 -44.62153384 44.03588973 -42.5 40.5 C-40 39 -40 39 -32 39 C-32 29.1 -32 19.2 -32 9 C-29.215625 7.906875 -26.43125 6.81375 -23.5625 5.6875 C-22.70470947 5.34936279 -21.84691895 5.01122559 -20.96313477 4.6628418 C-18.64817487 3.75849888 -16.32590177 2.87580543 -14 2 C-13.19804199 1.69143066 -12.39608398 1.38286133 -11.56982422 1.06494141 C-10.79268066 0.78183105 -10.01553711 0.4987207 -9.21484375 0.20703125 C-8.17831665 -0.17811646 -8.17831665 -0.17811646 -7.12084961 -0.57104492 C-4.50177559 -1.100769 -2.56591721 -0.6601754 0 0 Z " fill="#F73F3F" transform="translate(52,5)"/>
</svg>
